<?xml version="1.0" encoding="UTF-8"?>
<svg version="1.1" xmlns="http://www.w3.org/2000/svg" width="500" height="500">
<path d="M0 0 C165 0 330 0 500 0 C500 165 500 330 500 500 C335 500 170 500 0 500 C0 335 0 170 0 0 Z " fill="#FEFEFE" transform="translate(0,0)"/>
<path d="M0 0 C1.02544922 -0.020625 2.05089844 -0.04125 3.10742188 -0.0625 C10.48831537 -0.10027809 16.77835217 0.32778826 22.4375 5.5625 C24.2825012 8.86812715 24.54735321 10.51464907 23.9375 14.25 C20.98235488 19.84366755 20.98235488 19.84366755 17.6875 21.125 C17.11 21.16625 16.5325 21.2075 15.9375 21.25 C15.9375 21.91 15.9375 22.57 15.9375 23.25 C16.55625 23.518125 17.175 23.78625 17.8125 24.0625 C19.9375 25.25 19.9375 25.25 21.9375 28.25 C22.32249891 29.90549531 22.66543135 31.5722433 22.9375 33.25 C23.865625 32.610625 24.79375 31.97125 25.75 31.3125 C30.45945873 28.26520317 33.60297626 28.13683923 39.125 28.1875 C40.39730469 28.19652344 41.66960937 28.20554688 42.98046875 28.21484375 C44.44419922 28.23224609 44.44419922 28.23224609 45.9375 28.25 C45.4425 24.785 45.4425 24.785 44.9375 21.25 C42.56375139 20.91574265 42.56375139 20.91574265 39.9375 21.25 C39.27234375 22.24 39.27234375 22.24 38.59375 23.25 C36.9375 25.25 36.9375 25.25 34.45703125 25.640625 C33.11705078 25.57101563 33.11705078 25.57101563 31.75 25.5 C30.84894531 25.46390625 29.94789063 25.4278125 29.01953125 25.390625 C27.98892578 25.32101563 27.98892578 25.32101563 26.9375 25.25 C27 21.9375 27 21.9375 27.9375 18.25 C33.27816166 15.21014558 37.93675818 14.75687393 44 14.8125 C44.77666016 14.79251953 45.55332031 14.77253906 46.35351562 14.75195312 C52.20676468 14.75690931 55.71302716 16.02552716 59.9375 20.25 C60.7251842 29.74765369 59.16509337 38.06117736 56.9375 47.25 C52.6475 47.25 48.3575 47.25 43.9375 47.25 C43.9375 45.93 43.9375 44.61 43.9375 43.25 C42.82375 43.91 41.71 44.57 40.5625 45.25 C35.75859924 47.63485465 31.22323464 48.34456806 25.9375 47.25 C22.93010852 44.60936358 21.52422719 42.21040855 20.9375 38.25 C20.463125 38.9925 19.98875 39.735 19.5 40.5 C15.24768715 45.06345769 10.71660526 46.99286838 4.48608398 47.56933594 C0.60822019 47.64264054 -3.24779807 47.59936644 -7.125 47.5 C-8.48109325 47.47989291 -9.83721547 47.46164961 -11.19335938 47.4453125 C-14.48382486 47.39847313 -17.77277835 47.33288862 -21.0625 47.25 C-19.63117566 38.06781376 -17.85317832 28.97225642 -15.97583008 19.87329102 C-15.49311102 17.52904482 -15.01695146 15.18352227 -14.54101562 12.83789062 C-14.23476801 11.34627342 -13.92814198 9.85473385 -13.62109375 8.36328125 C-13.40857216 7.31192741 -13.40857216 7.31192741 -13.1917572 6.23933411 C-11.51030611 -1.83853815 -7.48422783 0.03666493 0 0 Z " fill="#060606" transform="translate(241.0625,227.75)"/>
<path d="M0 0 C-0.66 4.62 -1.32 9.24 -2 14 C-6.62 14 -11.24 14 -16 14 C-16 9.71 -16 5.42 -16 1 C-21.65423361 2.3111989 -21.65423361 2.3111989 -23.390625 4.62890625 C-28.19261463 15.43338291 -28.24073223 25.35123467 -28 37 C-24.05507665 36.52143007 -24.05507665 36.52143007 -21.3125 33.8125 C-19.71781773 30.53553356 -19.71781773 30.53553356 -18 25 C-13.38 25 -8.76 25 -4 25 C-5.7578125 35.64453125 -5.7578125 35.64453125 -7 39 C-13.01523019 42.95825093 -18.9017258 43.2280096 -25.875 43.3125 C-26.66519531 43.34150391 -27.45539063 43.37050781 -28.26953125 43.40039062 C-33.69157437 43.45903169 -36.68882173 42.57847422 -41 39 C-46.3848013 33.17859319 -46.35508497 28.03787581 -46.27734375 20.32421875 C-45.63644419 12.64245074 -41.7665892 6.05203358 -36 1 C-25.32487336 -7.04708974 -11.40103791 -5.70051895 0 0 Z " fill="#060606" transform="translate(139,232)"/>
<path d="M0 0 C1.16499023 -0.0299707 1.16499023 -0.0299707 2.35351562 -0.06054688 C7.66904732 -0.056046 10.73095907 0.91345557 14.9375 4.4375 C18.69207073 11.94664145 14.84832949 23.76448003 12.9375 31.4375 C11.9375 32.4375 11.9375 32.4375 9.21484375 32.53515625 C8.11269531 32.52355469 7.01054687 32.51195312 5.875 32.5 C4.77027344 32.49097656 3.66554688 32.48195313 2.52734375 32.47265625 C1.67269531 32.46105469 0.81804687 32.44945312 -0.0625 32.4375 C-0.3925 31.4475 -0.7225 30.4575 -1.0625 29.4375 C-1.9596875 29.9015625 -1.9596875 29.9015625 -2.875 30.375 C-7.8910728 32.81137822 -12.57695237 33.04800285 -18.0625 32.4375 C-20.6875 31 -20.6875 31 -22.0625 28.4375 C-22.72272992 25.27782825 -22.81465614 22.58645219 -22.0625 19.4375 C-19.52783925 15.96256187 -16.24068105 14.20987502 -12.0625 13.4375 C-9.81542759 13.2176777 -7.56478762 13.03266013 -5.3125 12.875 C-3.55679687 12.74931641 -3.55679687 12.74931641 -1.765625 12.62109375 C-0.87359375 12.56050781 0.0184375 12.49992188 0.9375 12.4375 C0.9375 10.4575 0.9375 8.4775 0.9375 6.4375 C-1.0425 6.4375 -3.0225 6.4375 -5.0625 6.4375 C-5.7225 7.7575 -6.3825 9.0775 -7.0625 10.4375 C-10.6925 10.4375 -14.3225 10.4375 -18.0625 10.4375 C-17.5 7.125 -17.5 7.125 -16.0625 3.4375 C-10.70206804 0.41792851 -6.07524519 -0.05573619 0 0 Z " fill="#060606" transform="translate(357.0625,242.5625)"/>
<path d="M0 0 C1.16499023 -0.0299707 1.16499023 -0.0299707 2.35351562 -0.06054688 C8.20676468 -0.05559069 11.71302716 1.21302716 15.9375 5.4375 C16.7251842 14.93515369 15.16509337 23.24867736 12.9375 32.4375 C8.6475 32.4375 4.3575 32.4375 -0.0625 32.4375 C-0.0625 31.1175 -0.0625 29.7975 -0.0625 28.4375 C-1.17625 29.0975 -2.29 29.7575 -3.4375 30.4375 C-8.26009344 32.83163446 -12.75707998 33.498584 -18.0625 32.4375 C-21.51325119 29.74423078 -22.24084774 27.30474317 -22.8125 23.125 C-22.895 21.908125 -22.9775 20.69125 -23.0625 19.4375 C-21.79418307 18.62107746 -20.52274069 17.80950895 -19.25 17 C-18.54230469 16.54753906 -17.83460938 16.09507812 -17.10546875 15.62890625 C-12.98984781 13.22878314 -9.55058097 13.33210476 -4.875 13.375 C-3.60269531 13.38402344 -2.33039063 13.39304688 -1.01953125 13.40234375 C0.44419922 13.41974609 0.44419922 13.41974609 1.9375 13.4375 C1.6075 11.1275 1.2775 8.8175 0.9375 6.4375 C-1.43624861 6.10324265 -1.43624861 6.10324265 -4.0625 6.4375 C-4.5059375 7.0975 -4.949375 7.7575 -5.40625 8.4375 C-7.0625 10.4375 -7.0625 10.4375 -9.54296875 10.828125 C-10.88294922 10.75851563 -10.88294922 10.75851563 -12.25 10.6875 C-13.15105469 10.65140625 -14.05210937 10.6153125 -14.98046875 10.578125 C-15.66753906 10.53171875 -16.35460937 10.4853125 -17.0625 10.4375 C-17 7.125 -17 7.125 -16.0625 3.4375 C-10.72183834 0.39764558 -6.06324182 -0.05562607 0 0 Z " fill="#060606" transform="translate(285.0625,242.5625)"/>
<path d="M0 0 C1.16499023 -0.0299707 1.16499023 -0.0299707 2.35351562 -0.06054688 C7.66904732 -0.056046 10.73095907 0.91345557 14.9375 4.4375 C18.69207073 11.94664145 14.84832949 23.76448003 12.9375 31.4375 C11.9375 32.4375 11.9375 32.4375 9.21484375 32.53515625 C8.11269531 32.52355469 7.01054687 32.51195312 5.875 32.5 C4.77027344 32.49097656 3.66554687 32.48195313 2.52734375 32.47265625 C1.67269531 32.46105469 0.81804687 32.44945312 -0.0625 32.4375 C-0.3925 31.4475 -0.7225 30.4575 -1.0625 29.4375 C-1.9596875 29.9015625 -1.9596875 29.9015625 -2.875 30.375 C-7.8910728 32.81137822 -12.57695237 33.04800285 -18.0625 32.4375 C-20.6875 31 -20.6875 31 -22.0625 28.4375 C-22.72272992 25.27782825 -22.81465614 22.58645219 -22.0625 19.4375 C-19.52783925 15.96256187 -16.24068105 14.20987502 -12.0625 13.4375 C-9.81542759 13.2176777 -7.56478762 13.03266013 -5.3125 12.875 C-3.55679688 12.74931641 -3.55679688 12.74931641 -1.765625 12.62109375 C-0.87359375 12.56050781 0.0184375 12.49992188 0.9375 12.4375 C0.9375 10.4575 0.9375 8.4775 0.9375 6.4375 C-1.0425 6.4375 -3.0225 6.4375 -5.0625 6.4375 C-5.7225 7.7575 -6.3825 9.0775 -7.0625 10.4375 C-10.6925 10.4375 -14.3225 10.4375 -18.0625 10.4375 C-17.5 7.125 -17.5 7.125 -16.0625 3.4375 C-10.70206804 0.41792851 -6.07524519 -0.05573619 0 0 Z " fill="#060606" transform="translate(157.0625,242.5625)"/>
<path d="M0 0 C46.71613882 -0.75757476 46.71613882 -0.75757476 66.0625 1.5 C67.29427979 1.62342773 68.52605957 1.74685547 69.79516602 1.87402344 C75.34768109 2.63497785 79.14394989 3.43760232 83.03125 7.6328125 C85.98036828 11.63041528 88.32792153 15.886356 90.4375 20.375 C90.78748047 21.08527344 91.13746094 21.79554688 91.49804688 22.52734375 C94 27.68792808 94 27.68792808 94 30 C88.05310888 30.10494514 82.14526044 30.0423627 76.2086792 29.64826965 C64.06021387 28.85030602 51.92056388 28.80113894 39.75 28.8125 C38.10224579 28.81290787 38.10224579 28.81290787 36.42120361 28.81332397 C18.86399322 28.83325614 1.48380309 29.2838479 -16 31 C-17.58506348 31.14477783 -17.58506348 31.14477783 -19.20214844 31.29248047 C-36.91748767 32.95688059 -55.25421446 35.8195615 -71.171875 44.21484375 C-71.77515625 44.47394531 -72.3784375 44.73304688 -73 45 C-73.66 44.67 -74.32 44.34 -75 44 C-63.21428444 37.90750965 -52.01631246 32.74774861 -39 29.875 C-38.29576904 29.71612305 -37.59153809 29.55724609 -36.8659668 29.39355469 C-22.44373951 26.40823691 -7.76479429 25.70279637 6.9198494 25.84967041 C9.56186354 25.87584509 12.20367083 25.88838509 14.84579468 25.89794922 C20.43895855 25.92045987 26.03194498 25.95902877 31.625 26 C38.15232497 26.04748771 44.67955437 26.08808275 51.20701218 26.11187744 C53.79330593 26.12471092 56.37929053 26.14969805 58.96548462 26.17529297 C67.77464566 26.23053824 75.56308349 25.8123055 84 23 C83.12041381 17.81044146 82.45121363 14.30941785 77.9296875 11.0859375 C64.00704865 3.25093021 46.60502584 2.52966061 31 2 C29.75492676 1.95633301 28.50985352 1.91266602 27.22705078 1.86767578 C18.1521386 1.55211999 9.07645756 1.26753657 0 1 C0 0.67 0 0.34 0 0 Z " fill="#FF3C3C" transform="translate(229,175)"/>
<path d="M0 0 C2.29378198 0.00933727 4.58756455 0.01853204 6.88134766 0.02758789 C44.06202076 0.25520645 44.06202076 0.25520645 60.3125 3.3125 C60.3125 3.6425 60.3125 3.9725 60.3125 4.3125 C59.33901611 4.42843506 58.36553223 4.54437012 57.36254883 4.66381836 C53.73747148 5.09607038 50.11271031 5.53092583 46.48803711 5.96655273 C44.92171544 6.15443366 43.35530984 6.34161637 41.78881836 6.52807617 C39.53216275 6.79681096 37.27582473 7.0680874 35.01953125 7.33984375 C34.32350296 7.42217758 33.62747467 7.50451141 32.91035461 7.58934021 C29.33985931 8.02196663 25.82743436 8.54760743 22.3125 9.3125 C22.3125 9.9725 22.3125 10.6325 22.3125 11.3125 C39.13276848 16.5747069 57.07931671 15.17956991 73.296875 8.375 C75.40570262 7.36017046 75.40570262 7.36017046 77.265625 5.625 C79.3125 4.3125 79.3125 4.3125 81.83203125 4.390625 C86.99102055 6.30798165 90.25058469 11.36565526 92.8125 16.0625 C93.36839582 18.56403117 93.00508192 19.88846327 92.3125 22.3125 C92.05855469 21.68601563 91.80460938 21.05953125 91.54296875 20.4140625 C91.02669922 19.18816406 91.02669922 19.18816406 90.5 17.9375 C90.16355469 17.12539062 89.82710937 16.31328125 89.48046875 15.4765625 C88.36810918 13.01102542 88.36810918 13.01102542 85.3125 11.3125 C78.08633298 10.2468061 71.9697718 12.06619923 65.3125 14.6875 C49.16122736 20.89564542 33.80916597 22.89338023 17.3125 16.3125 C14.56040566 15.08195631 11.95795121 13.76490459 9.3125 12.3125 C9.93115234 10.39160156 9.93115234 10.39160156 11.3125 8.3125 C14.01806641 7.49121094 14.01806641 7.49121094 17.4140625 7.046875 C19.23164063 6.79550781 19.23164063 6.79550781 21.0859375 6.5390625 C22.35695313 6.38179687 23.62796875 6.22453125 24.9375 6.0625 C26.855625 5.80339844 26.855625 5.80339844 28.8125 5.5390625 C31.97738003 5.11392936 35.14353928 4.70585334 38.3125 4.3125 C28.450012 3.38725957 18.64630334 3.11155578 8.75 3.125 C7.99193054 3.12527191 7.23386108 3.12554382 6.45281982 3.12582397 C-18.38459814 3.16641542 -43.30285575 4.80548351 -67.62890625 10.078125 C-69.91528383 10.33843364 -71.48720085 9.91761815 -73.6875 9.3125 C-70.00550702 8.35252688 -66.31606828 7.42440609 -62.625 6.5 C-61.62533203 6.23896484 -60.62566406 5.97792969 -59.59570312 5.70898438 C-39.91321102 0.83350468 -20.19960714 -0.1723592 0 0 Z " fill="#FF3A3A" transform="translate(257.6875,205.6875)"/>
<path d="M0 0 C9.9 0 19.8 0 30 0 C28.87943003 7.84398977 28.87943003 7.84398977 25.875 10.4375 C23.16656564 12.91187213 20.66014363 15.41839881 18.25 18.1875 C17.42242187 19.13689453 17.42242187 19.13689453 16.578125 20.10546875 C14.98582782 22.01701363 13.49271199 24.00971735 12 26 C18.93 26.495 18.93 26.495 26 27 C26 28.65 26 30.3 26 32 C15.11 32 4.22 32 -7 32 C-6.00392597 26.02355582 -4.85344421 24.08819726 -0.875 20.0625 C-0.38016113 19.54252441 0.11467773 19.02254883 0.62451172 18.48681641 C3.93388861 15.02667064 7.30680118 11.62360269 10.7578125 8.3046875 C12.12270644 6.99863631 12.12270644 6.99863631 13 5 C8.38 5 3.76 5 -1 5 C-0.67 3.35 -0.34 1.7 0 0 Z " fill="#080808" transform="translate(307,243)"/>
<path d="M0 0 C3.96 0 7.92 0 12 0 C12.66 1.65 13.32 3.3 14 5 C14.61875 4.175 15.2375 3.35 15.875 2.5 C17.7914162 0.5392736 18.76966397 0.03351639 21.5234375 -0.3671875 C24.05355015 -0.37443711 26.49055643 -0.32529824 29 0 C29.495 0.495 29.495 0.495 30 1 C29.87419322 6.22582023 29.36140321 11.27719357 27 16 C24.36 16 21.72 16 19 16 C18.34 13.69 17.68 11.38 17 9 C15.68 9 14.36 9 13 9 C12.896875 10.03125 12.79375 11.0625 12.6875 12.125 C10.53125 29.46875 10.53125 29.46875 8 32 C5.46950598 32.07313567 2.96695163 32.09247527 0.4375 32.0625 C-0.62887695 32.05573242 -0.62887695 32.05573242 -1.71679688 32.04882812 C-3.47790013 32.03700864 -5.23896036 32.01907263 -7 32 C-6.21512351 27.790371 -5.42090344 23.58255693 -4.625 19.375 C-4.40328125 18.18519531 -4.1815625 16.99539063 -3.953125 15.76953125 C-3.73398438 14.61582031 -3.51484375 13.46210938 -3.2890625 12.2734375 C-3.09006348 11.21560059 -2.89106445 10.15776367 -2.68603516 9.06787109 C-1.98986087 5.95465895 -1.06007037 3.0068167 0 0 Z " fill="#070707" transform="translate(180,243)"/>
<path d="M0 0 C3.96 0 7.92 0 12 0 C12.66 1.65 13.32 3.3 14 5 C14.804375 4.175 15.60875 3.35 16.4375 2.5 C19.90265249 -0.43460283 22.73026244 -0.46568371 27.14453125 -0.2734375 C29 0 29 0 30 1 C29.85665573 6.23757909 28.88208784 11.10657161 27 16 C24.36 16 21.72 16 19 16 C18.67 13.36 18.34 10.72 18 8 C15.99158195 8.64699628 15.99158195 8.64699628 14 10 C12.99185456 12.28615649 12.99185456 12.28615649 12.515625 15.0078125 C12.30292969 15.99394531 12.09023438 16.98007812 11.87109375 17.99609375 C11.66613281 19.02863281 11.46117187 20.06117188 11.25 21.125 C11.02957031 22.16527344 10.80914062 23.20554687 10.58203125 24.27734375 C10.03951325 26.84840731 9.5177784 29.42384024 9 32 C4.05 32 -0.9 32 -6 32 C-5.34941146 24.82856996 -4.01874321 17.95786552 -2.4375 10.9375 C-2.20353516 9.88111328 -1.96957031 8.82472656 -1.72851562 7.73632812 C-1.15654355 5.15661732 -0.57886089 2.57817377 0 0 Z " fill="#070707" transform="translate(380,243)"/>
<path d="M0 0 C1.64247459 -0.00855011 1.64247459 -0.00855011 3.31813049 -0.01727295 C5.6267095 -0.0266698 7.9353016 -0.03323562 10.24389648 -0.03710938 C13.71297685 -0.04676113 17.18145014 -0.07781452 20.65039062 -0.109375 C33.84259496 -0.17025502 46.37282427 0.60244469 59.31640625 3.203125 C59.31640625 3.533125 59.31640625 3.863125 59.31640625 4.203125 C57.78886719 4.11224609 57.78886719 4.11224609 56.23046875 4.01953125 C54.02361231 3.88834985 51.81670169 3.75843076 49.60961914 3.63110352 C45.74630036 3.40809161 41.88425914 3.17699545 38.0234375 2.9140625 C-5.42496252 -0.2323381 -5.42496252 -0.2323381 -44.765625 15.515625 C-50.50142316 20.56219283 -53.53716452 26.63669211 -54.68359375 34.203125 C-57.32359375 34.533125 -59.96359375 34.863125 -62.68359375 35.203125 C-61.26978325 32.03517573 -59.85201745 28.86901112 -58.43359375 25.703125 C-58.03785156 24.81625 -57.64210937 23.929375 -57.234375 23.015625 C-56.44203235 21.24909056 -55.64192429 19.48601807 -54.83398438 17.7265625 C-54.10042479 16.11746406 -53.38833703 14.49828061 -52.70507812 12.8671875 C-51.19561824 9.45449559 -50.15596974 7.5509655 -47.10546875 5.3046875 C-42.42725131 3.79868599 -37.80374336 3.15727793 -32.93359375 2.578125 C-31.99515625 2.45695313 -31.05671875 2.33578125 -30.08984375 2.2109375 C-27.28925287 1.85506131 -24.48933594 1.51611794 -21.68359375 1.203125 C-20.61237526 1.07653503 -20.61237526 1.07653503 -19.51951599 0.9473877 C-13.00265535 0.2249082 -6.55366417 0.02714065 0 0 Z " fill="#FF3B3B" transform="translate(235.68359375,169.796875)"/>
<path d="M0 0 C2.29378198 0.00933727 4.58756455 0.01853204 6.88134766 0.02758789 C44.06202076 0.25520645 44.06202076 0.25520645 60.3125 3.3125 C60.3125 3.6425 60.3125 3.9725 60.3125 4.3125 C56.220561 4.79028534 52.12728589 5.25381897 48.03222656 5.70410156 C46.63887938 5.85935097 45.24596258 6.01851422 43.85351562 6.18164062 C41.85403529 6.41519816 39.85280349 6.63360556 37.8515625 6.8515625 C36.64709473 6.98771973 35.44262695 7.12387695 34.20166016 7.26416016 C32.77152588 7.28808838 32.77152588 7.28808838 31.3125 7.3125 C30.3225 6.3225 30.3225 6.3225 29.3125 5.3125 C33.7675 4.8175 33.7675 4.8175 38.3125 4.3125 C28.450012 3.38725957 18.64630334 3.11155578 8.75 3.125 C7.99193054 3.12527191 7.23386108 3.12554382 6.45281982 3.12582397 C-18.38459814 3.16641542 -43.30285575 4.80548351 -67.62890625 10.078125 C-69.91528383 10.33843364 -71.48720085 9.91761815 -73.6875 9.3125 C-70.00550702 8.35252688 -66.31606828 7.42440609 -62.625 6.5 C-61.62533203 6.23896484 -60.62566406 5.97792969 -59.59570312 5.70898438 C-39.91321102 0.83350468 -20.19960714 -0.1723592 0 0 Z " fill="#FF4F4F" transform="translate(257.6875,205.6875)"/>
<path d="M0 0 C0 0.33 0 0.66 0 1 C2.64 1.33 5.28 1.66 8 2 C8 2.33 8 2.66 8 3 C7.21689453 3.04487549 6.43378906 3.08975098 5.62695312 3.13598633 C-37.06555764 4.88135383 -37.06555764 4.88135383 -77.171875 18.21484375 C-77.77515625 18.47394531 -78.3784375 18.73304688 -79 19 C-79.66 18.67 -80.32 18.34 -81 18 C-55.07975901 4.600829 -29.17965654 -0.72446044 0 0 Z " fill="#FF4D4D" transform="translate(235,201)"/>
<path d="M0 0 C2.375 -0.125 2.375 -0.125 5 0 C7 2 7 2 7.3125 5.75 C7.21939215 10.00968433 6.10469583 13.89530417 3 17 C1.00041636 17.04080783 -1.00045254 17.04254356 -3 17 C-2.54775239 11.08507728 -1.8417395 5.64800112 0 0 Z " fill="#F4F4F4" transform="translate(240,253)"/>
<path d="M0 0 C1.64247459 -0.00855011 1.64247459 -0.00855011 3.31813049 -0.01727295 C5.6267095 -0.0266698 7.9353016 -0.03323562 10.24389648 -0.03710938 C13.71297685 -0.04676113 17.18145014 -0.07781452 20.65039062 -0.109375 C33.84259496 -0.17025502 46.37282427 0.60244469 59.31640625 3.203125 C59.31640625 3.533125 59.31640625 3.863125 59.31640625 4.203125 C57.78886719 4.11224609 57.78886719 4.11224609 56.23046875 4.01953125 C54.02361231 3.88834985 51.81670169 3.75843076 49.60961914 3.63110352 C45.74630036 3.40809161 41.88425914 3.17699545 38.0234375 2.9140625 C19.71193476 1.70888708 1.49417094 1.43694342 -16.68359375 4.203125 C-16.68359375 3.873125 -16.68359375 3.543125 -16.68359375 3.203125 C-18.33359375 2.873125 -19.98359375 2.543125 -21.68359375 2.203125 C-21.68359375 1.873125 -21.68359375 1.543125 -21.68359375 1.203125 C-14.44067133 0.3405006 -7.29087229 0.03019365 0 0 Z " fill="#FF5454" transform="translate(235.68359375,169.796875)"/>
<path d="M0 0 C2.45650135 1.42506975 3.99181597 2.94032407 6 5 C5.625 7.4375 5.625 7.4375 5 10 C2.41362387 11.29318807 -0.02170346 11.59160143 -2.875 12.0625 C-3.92429687 12.23910156 -4.97359375 12.41570312 -6.0546875 12.59765625 C-9 13 -9 13 -13 13 C-13.33 12.34 -13.66 11.68 -14 11 C-11.98177083 10.54427083 -9.96354167 10.08854167 -7.9453125 9.6328125 C-5.79280036 9.09525572 -5.79280036 9.09525572 -4 7 C-0.875 6.875 -0.875 6.875 2 7 C2 6.01 2 5.02 2 4 C-0.97 4 -3.94 4 -7 4 C-7.66 5.65 -8.32 7.3 -9 9 C-9.66 8.67 -10.32 8.34 -11 8 C-11 5.69 -11 3.38 -11 1 C-7.52011442 -0.73994279 -3.7956593 -0.5976415 0 0 Z " fill="#FF4E4E" transform="translate(338,195)"/>
<path d="M0 0 C5.1589893 1.91735665 8.41855344 6.97503026 10.98046875 11.671875 C11.53636457 14.17340617 11.17305067 15.49783827 10.48046875 17.921875 C10.22652344 17.29539063 9.97257812 16.66890625 9.7109375 16.0234375 C9.36675781 15.20617187 9.02257812 14.38890625 8.66796875 13.546875 C8.33152344 12.73476562 7.99507813 11.92265625 7.6484375 11.0859375 C6.53607793 8.62040042 6.53607793 8.62040042 3.48046875 6.921875 C-3.31902464 5.83091151 -9.00594004 7.48449678 -15.26953125 10.046875 C-17.51953125 10.921875 -17.51953125 10.921875 -19.51953125 10.921875 C-19.51953125 9.931875 -19.51953125 8.941875 -19.51953125 7.921875 C-18.6275 7.59574219 -17.73546875 7.26960937 -16.81640625 6.93359375 C-15.06070312 6.27810547 -15.06070312 6.27810547 -13.26953125 5.609375 C-12.109375 5.18011719 -10.94921875 4.75085938 -9.75390625 4.30859375 C-6.5550506 3.11468828 -6.5550506 3.11468828 -4.41015625 1.19140625 C-2.51953125 -0.078125 -2.51953125 -0.078125 0 0 Z " fill="#FF4444" transform="translate(339.51953125,210.078125)"/>
<path d="M0 0 C1 1 1 1 1.09765625 2.84765625 C1.06510417 4.8984375 1.03255208 6.94921875 1 9 C-0.33333333 7 -1.66666667 5 -3 3 C-6.41589896 2.70928519 -8.73842267 2.91280756 -12 4 C-11.67 4.66 -11.34 5.32 -11 6 C-8.67328146 6.68939809 -6.33932406 7.35466922 -4 8 C-3.01 8.66 -2.02 9.32 -1 10 C0.65549531 10.38499891 2.3222433 10.72793135 4 11 C3.67 11.66 3.34 12.32 3 13 C0.37348569 12.71880143 -2.25069335 12.42556162 -4.875 12.125 C-5.99455078 12.00705078 -5.99455078 12.00705078 -7.13671875 11.88671875 C-12.7734375 11.2265625 -12.7734375 11.2265625 -15 9 C-15.4375 6.625 -15.4375 6.625 -15 4 C-10.96753682 -0.97337125 -5.93171111 -0.67006366 0 0 Z " fill="#FF4343" transform="translate(168,195)"/>
<path d="M0 0 C6.50631254 -0.05147344 13.01257104 -0.08605098 19.51904297 -0.10986328 C21.72414105 -0.11980916 23.92922634 -0.13337064 26.13427734 -0.15087891 C39.57785147 -0.25480831 52.67890994 0.11098211 66 2 C64.68603516 3.50683594 64.68603516 3.50683594 63 5 C60.0234375 4.890625 60.0234375 4.890625 56.375 4.25 C54.99816289 4.03284006 53.62051577 3.82076637 52.2421875 3.61328125 C51.53288086 3.50580566 50.82357422 3.39833008 50.09277344 3.28759766 C33.65745754 1.02898798 16.56834415 1.48836651 0 1 C0 0.67 0 0.34 0 0 Z " fill="#FF4646" transform="translate(229,175)"/>
<path d="M0 0 C2.375 -0.125 2.375 -0.125 5 0 C5.66 0.66 6.32 1.32 7 2 C6.80567168 6.01611861 6.54317883 8.91364234 4.75 12.5 C3 14 3 14 0.3125 14.25 C-0.450625 14.1675 -1.21375 14.085 -2 14 C-1.03644647 4.58997722 -1.03644647 4.58997722 0 0 Z " fill="#F4F4F4" transform="translate(244,234)"/>
<path d="M0 0 C0.91523438 0.04382813 1.83046875 0.08765625 2.7734375 0.1328125 C7.3752309 0.37221216 11.84282114 0.73663271 16.375 1.625 C16.375 1.955 16.375 2.285 16.375 2.625 C12.283061 3.10278534 8.18978589 3.56631897 4.09472656 4.01660156 C2.70137938 4.17185097 1.30846258 4.33101422 -0.08398438 4.49414062 C-2.08346471 4.72769816 -4.08469651 4.94610556 -6.0859375 5.1640625 C-7.29040527 5.30021973 -8.49487305 5.43637695 -9.73583984 5.57666016 C-11.16597412 5.60058838 -11.16597412 5.60058838 -12.625 5.625 C-13.285 4.965 -13.945 4.305 -14.625 3.625 C-10.17 3.13 -10.17 3.13 -5.625 2.625 C-9.915 2.295 -14.205 1.965 -18.625 1.625 C-18.625 1.295 -18.625 0.965 -18.625 0.625 C-12.30719053 -0.36631905 -6.37493558 -0.36221225 0 0 Z " fill="#FF7070" transform="translate(301.625,207.375)"/>
<path d="M0 0 C-1.75 7.75 -1.75 7.75 -4 10 C-6.625 9.625 -6.625 9.625 -9 9 C-9.25 6.1875 -9.25 6.1875 -9 3 C-6.24653799 -0.05940224 -4.00406942 -0.33367245 0 0 Z " fill="#E9E9E9" transform="translate(286,259)"/>
<path d="M0 0 C-1.625 7.75 -1.625 7.75 -5 10 C-7.1875 9.625 -7.1875 9.625 -9 9 C-9.25 6.1875 -9.25 6.1875 -9 3 C-6.24653799 -0.05940224 -4.00406942 -0.33367245 0 0 Z " fill="#EAEAEA" transform="translate(358,259)"/>
<path d="M0 0 C-1.625 7.75 -1.625 7.75 -5 10 C-7.1875 9.625 -7.1875 9.625 -9 9 C-9.25 6.1875 -9.25 6.1875 -9 3 C-6.24653799 -0.05940224 -4.00406942 -0.33367245 0 0 Z " fill="#EAEAEA" transform="translate(158,259)"/>
<path d="M0 0 C2.82726947 2.63228537 3.47784461 5.2404812 4 9 C3.34 8.731875 2.68 8.46375 2 8.1875 C-1.64939067 6.74294953 -5.32245433 5.37128822 -9 4 C-9 3.34 -9 2.68 -9 2 C-5.52957297 -0.31361802 -4.08165827 -0.51020728 0 0 Z " fill="#FFEAEA" transform="translate(165,197)"/>
<path d="M0 0 C6.75 -0.125 6.75 -0.125 9 1 C9 1.99 9 2.98 9 4 C7.9275 4.28875 6.855 4.5775 5.75 4.875 C2.90599636 5.72820109 0.56491017 6.5636503 -2 8 C-2.33 7.34 -2.66 6.68 -3 6 C-2.06553465 3.96855359 -1.06775224 1.96466413 0 0 Z " fill="#FFF6F6" transform="translate(331,198)"/>
<path d="M0 0 C4.62 0 9.24 0 14 0 C14 0.33 14 0.66 14 1 C17.3 1.33 20.6 1.66 24 2 C24 2.33 24 2.66 24 3 C21.31222198 3.0544207 18.62556788 3.09387266 15.9375 3.125 C15.18533203 3.14175781 14.43316406 3.15851563 13.65820312 3.17578125 C8.70672291 3.21865121 4.69585549 2.58399375 0 1 C0 0.67 0 0.34 0 0 Z " fill="#FFDADA" transform="translate(243,203)"/>
<path d="M0 0 C-0.33 0.99 -0.66 1.98 -1 3 C-5.43028188 4.65049717 -9.29050618 5.22973141 -14 5 C-13.67 4.01 -13.34 3.02 -13 2 C-8.56204759 0.5946484 -4.67869431 -0.29241839 0 0 Z " fill="#FF4343" transform="translate(194,205)"/>
<path d="M0 0 C1.22589844 0.01353516 1.22589844 0.01353516 2.4765625 0.02734375 C3.41628906 0.04474609 3.41628906 0.04474609 4.375 0.0625 C2.375 2.0625 2.375 2.0625 -0.125 2.875 C-2.86053696 3.85978463 -2.86053696 3.85978463 -3.9375 6.6875 C-4.2778125 7.863125 -4.2778125 7.863125 -4.625 9.0625 C-5.285 8.7325 -5.945 8.4025 -6.625 8.0625 C-6.625 5.7525 -6.625 3.4425 -6.625 1.0625 C-4.21954362 -0.14022819 -2.67503047 -0.03821472 0 0 Z " fill="#FF6161" transform="translate(333.625,194.9375)"/>
<path d="M0 0 C0.97582031 0.10183594 1.95164063 0.20367187 2.95703125 0.30859375 C3.69308594 0.39238281 4.42914063 0.47617188 5.1875 0.5625 C5.1875 0.8925 5.1875 1.2225 5.1875 1.5625 C-0.7525 1.8925 -6.6925 2.2225 -12.8125 2.5625 C-9.14519914 -1.10480086 -4.89615003 -0.53090783 0 0 Z " fill="#FF5454" transform="translate(214.8125,209.4375)"/>
<path d="M0 0 C1.64574566 -0.02688151 3.29161413 -0.04634123 4.9375 -0.0625 C5.85402344 -0.07410156 6.77054688 -0.08570313 7.71484375 -0.09765625 C10 0 10 0 11 1 C11.14115161 3.67058851 11.04247107 6.32432238 11 9 C9.0549 6.08235 8.54723683 4.37462715 8 1 C5.36 1 2.72 1 0 1 C0 0.67 0 0.34 0 0 Z " fill="#FF5050" transform="translate(158,195)"/>
<path d="M0 0 C0 0.66 0 1.32 0 2 C-2.64 2.66 -5.28 3.32 -8 4 C-8 3.01 -8 2.02 -8 1 C-2.25 -1.125 -2.25 -1.125 0 0 Z " fill="#FF4F4F" transform="translate(328,217)"/>
<path d="M0 0 C2 2 2 2 2.125 5.125 C2.08375 6.07375 2.0425 7.0225 2 8 C1.01 8.33 0.02 8.66 -1 9 C-0.67 6.03 -0.34 3.06 0 0 Z " fill="#C0C0C0" transform="translate(133,262)"/>
</svg>
